HIERARCHY
ROOT reference
{
  OFFSET 0 0 0
  CHANNELS 6 Xposition Yposition Zposition Zrotation Xrotation Yrotation
  JOINT Hips
  {
    OFFSET 366.965 89.8555 201.872
    CHANNELS 3 Zrotation Xrotation Yrotation
    JOINT RightUpLeg
    {
      OFFSET -9.27238 -1.56811 0.0123499
      CHANNELS 3 Zrotation Xrotation Yrotation
      JOINT RightLeg
      {
        OFFSET 0.00682797 -41.8882 0.0419786
        CHANNELS 3 Zrotation Xrotation Yrotation
        JOINT RightFoot
        {
          OFFSET 0.530869 -42.1265 0.242224
          CHANNELS 3 Zrotation Xrotation Yrotation
          End Site
          {
            OFFSET 0 -7.69 17.5
          }
        }
      }
    }
    JOINT LeftUpLeg
    {
      OFFSET 9.28391 -1.61639 -0.0258413
      CHANNELS 3 Zrotation Xrotation Yrotation
      JOINT LeftLeg
      {
        OFFSET 0.0291166 -41.8727 -0.014263
        CHANNELS 3 Zrotation Xrotation Yrotation
        JOINT LeftFoot
        {
          OFFSET -0.125672 -41.4933 -0.195947
          CHANNELS 3 Zrotation Xrotation Yrotation
          End Site
          {
            OFFSET 0 -7.69 17.5
          }
        }
      }
    }
    JOINT Spine
    {
      OFFSET 0.0325614 14.2957 0.0242834
      CHANNELS 3 Zrotation Xrotation Yrotation
      JOINT Spine1
      {
        OFFSET 0.00746153 9.71731 0.0172653
        CHANNELS 3 Zrotation Xrotation Yrotation
        JOINT Spine2
        {
          OFFSET 0.0283815 10.1155 -0.00252583
          CHANNELS 3 Zrotation Xrotation Yrotation
          JOINT Spine3
          {
            OFFSET 0.0279172 9.71841 -0.00465252
            CHANNELS 3 Zrotation Xrotation Yrotation
            JOINT Neck
            {
              OFFSET 0.0182001 10.3765 0.0184284
              CHANNELS 3 Zrotation Xrotation Yrotation
              JOINT Head
              {
                OFFSET 0.0113688 9.47343 0.00632939
                CHANNELS 3 Zrotation Xrotation Yrotation
                End Site
                {
                  OFFSET 0 15.95 0
                }
              }
            }
            JOINT RightShoulder
            {
              OFFSET -3.17351 6.93492 0.00767284
              CHANNELS 3 Zrotation Xrotation Yrotation
              JOINT RightArm
              {
                OFFSET -12.7835 -0.0133269 0.0174019
                CHANNELS 3 Zrotation Xrotation Yrotation
                JOINT RightForeArm
                {
                  OFFSET -26.5112 -0.0170228 0.0247955
                  CHANNELS 3 Zrotation Xrotation Yrotation
                  JOINT RightHand
                  {
                    OFFSET -25.9918 -0.0199622 0.0218897
                    CHANNELS 3 Zrotation Xrotation Yrotation
                    JOINT RightHandThumb1
                    {
                      OFFSET -2.48905 0.190105 3.12053
                      CHANNELS 3 Zrotation Xrotation Yrotation
                      JOINT RightHandThumb2
                      {
                        OFFSET -3.68274 0 0
                        CHANNELS 3 Zrotation Xrotation Yrotation
                        JOINT RightHandThumb3
                        {
                          OFFSET -2.55832 0 0
                          CHANNELS 3 Zrotation Xrotation Yrotation
                          End Site
                          {
                            OFFSET -2.194 0 0
                          }
                        }
                      }
                    }
                    JOINT RightInHandIndex
                    {
                      OFFSET -3.22368 0.508421 1.97842
                      CHANNELS 3 Zrotation Xrotation Yrotation
                      JOINT RightHandIndex1
                      {
                        OFFSET -5.21684 -0.091368 0.999158
                        CHANNELS 3 Zrotation Xrotation Yrotation
                        JOINT RightHandIndex2
                        {
                          OFFSET -3.61937 0 0
                          CHANNELS 3 Zrotation Xrotation Yrotation
                          JOINT RightHandIndex3
                          {
                            OFFSET -2.0521 0 0
                            CHANNELS 3 Zrotation Xrotation Yrotation
                            End Site
                            {
                              OFFSET -1.805 0 0
                            }
                          }
                        }
                      }
                    }
                    JOINT RightInHandMiddle
                    {
                      OFFSET -3.38211 0.517263 0.756737
                      CHANNELS 3 Zrotation Xrotation Yrotation
                      JOINT RightHandMiddle1
                      {
                        OFFSET -5.17411 -0.084 0.313895
                        CHANNELS 3 Zrotation Xrotation Yrotation
                        JOINT RightHandMiddle2
                        {
                          OFFSET -3.94947 0 0
                          CHANNELS 3 Zrotation Xrotation Yrotation
                          JOINT RightHandMiddle3
                          {
                            OFFSET -2.47579 0 0
                            CHANNELS 3 Zrotation Xrotation Yrotation
                            End Site
                            {
                              OFFSET -1.975 0 0
                            }
                          }
                        }
                      }
                    }
                    JOINT RightInHandRing
                    {
                      OFFSET -3.36516 0.537895 -0.128947
                      CHANNELS 3 Zrotation Xrotation Yrotation
                      JOINT RightHandRing1
                      {
                        OFFSET -4.63474 -0.022105 -0.478947
                        CHANNELS 3 Zrotation Xrotation Yrotation
                        JOINT RightHandRing2
                        {
                          OFFSET -3.44238 0 0
                          CHANNELS 3 Zrotation Xrotation Yrotation
                          JOINT RightHandRing3
                          {
                            OFFSET -2.3881 0 0
                            CHANNELS 3 Zrotation Xrotation Yrotation
                            End Site
                            {
                              OFFSET -1.857 0 0
                            }
                          }
                        }
                      }
                    }
                    JOINT RightInHandPinky
                    {
                      OFFSET -3.16105 0.469368 -1.20179
                      CHANNELS 3 Zrotation Xrotation Yrotation
                      JOINT RightHandPinky1
                      {
                        OFFSET -4.14105 -0.022105 -1.09053
                        CHANNELS 3 Zrotation Xrotation Yrotation
                        JOINT RightHandPinky2
                        {
                          OFFSET -2.75653 0 0
                          CHANNELS 3 Zrotation Xrotation Yrotation
                          JOINT RightHandPinky3
                          {
                            OFFSET -1.74189 0 0
                            CHANNELS 3 Zrotation Xrotation Yrotation
                            End Site
                            {
                              OFFSET -1.645 0 0
                            }
                          }
                        }
                      }
                    }
                  }
                }
              }
            }
            JOINT LeftShoulder
            {
              OFFSET 3.23633 6.91116 -0.0162332
              CHANNELS 3 Zrotation Xrotation Yrotation
              JOINT LeftArm
              {
                OFFSET 12.8112 -0.0136289 -0.0286256
                CHANNELS 3 Zrotation Xrotation Yrotation
                JOINT LeftForeArm
                {
                  OFFSET 26.502 -0.0235899 -0.00806802
                  CHANNELS 3 Zrotation Xrotation Yrotation
                  JOINT LeftHand
                  {
                    OFFSET 25.9974 -0.0321613 -0.027004
                    CHANNELS 3 Zrotation Xrotation Yrotation
                    JOINT LeftHandThumb1
                    {
                      OFFSET 2.48905 0.190105 3.12053
                      CHANNELS 3 Zrotation Xrotation Yrotation
                      JOINT LeftHandThumb2
                      {
                        OFFSET 3.68274 0 0
                        CHANNELS 3 Zrotation Xrotation Yrotation
                        JOINT LeftHandThumb3
                        {
                          OFFSET 2.55832 0 0
                          CHANNELS 3 Zrotation Xrotation Yrotation
                          End Site
                          {
                            OFFSET 2.194 0 0
                          }
                        }
                      }
                    }
                    JOINT LeftInHandIndex
                    {
                      OFFSET 3.22368 0.508421 1.97842
                      CHANNELS 3 Zrotation Xrotation Yrotation
                      JOINT LeftHandIndex1
                      {
                        OFFSET 5.21684 -0.091368 0.999158
                        CHANNELS 3 Zrotation Xrotation Yrotation
                        JOINT LeftHandIndex2
                        {
                          OFFSET 3.61937 0 0
                          CHANNELS 3 Zrotation Xrotation Yrotation
                          JOINT LeftHandIndex3
                          {
                            OFFSET 2.0521 0 0
                            CHANNELS 3 Zrotation Xrotation Yrotation
                            End Site
                            {
                              OFFSET 1.805 0 0
                            }
                          }
                        }
                      }
                    }
                    JOINT LeftInHandMiddle
                    {
                      OFFSET 3.38211 0.517263 0.756737
                      CHANNELS 3 Zrotation Xrotation Yrotation
                      JOINT LeftHandMiddle1
                      {
                        OFFSET 5.17411 -0.084 0.313895
                        CHANNELS 3 Zrotation Xrotation Yrotation
                        JOINT LeftHandMiddle2
                        {
                          OFFSET 3.94947 0 0
                          CHANNELS 3 Zrotation Xrotation Yrotation
                          JOINT LeftHandMiddle3
                          {
                            OFFSET 2.47579 0 0
                            CHANNELS 3 Zrotation Xrotation Yrotation
                            End Site
                            {
                              OFFSET 1.975 0 0
                            }
                          }
                        }
                      }
                    }
                    JOINT LeftInHandRing
                    {
                      OFFSET 3.36516 0.537895 -0.128947
                      CHANNELS 3 Zrotation Xrotation Yrotation
                      JOINT LeftHandRing1
                      {
                        OFFSET 4.63474 -0.022105 -0.478947
                        CHANNELS 3 Zrotation Xrotation Yrotation
                        JOINT LeftHandRing2
                        {
                          OFFSET 3.44238 0 0
                          CHANNELS 3 Zrotation Xrotation Yrotation
                          JOINT LeftHandRing3
                          {
                            OFFSET 2.3881 0 0
                            CHANNELS 3 Zrotation Xrotation Yrotation
                            End Site
                            {
                              OFFSET 1.857 0 0
                            }
                          }
                        }
                      }
                    }
                    JOINT LeftInHandPinky
                    {
                      OFFSET 3.16105 0.469368 -1.20179
                      CHANNELS 3 Zrotation Xrotation Yrotation
                      JOINT LeftHandPinky1
                      {
                        OFFSET 4.14105 -0.022105 -1.09053
                        CHANNELS 3 Zrotation Xrotation Yrotation
                        JOINT LeftHandPinky2
                        {
                          OFFSET 2.75653 0 0
                          CHANNELS 3 Zrotation Xrotation Yrotation
                          JOINT LeftHandPinky3
                          {
                            OFFSET 1.74189 0 0
                            CHANNELS 3 Zrotation Xrotation Yrotation
                            End Site
                            {
                              OFFSET 1.645 0 0
                            }
                          }
                        }
                      }
                    }
                  }
                }
              }
            }
          }
        }
      }
    }
  }
}
MOTION
Frames: 2
Frame Time: 0.00833333
3.150000000000000000e+03 0.000000000000000000e+00 0.000000000000000000e+00 0.000000000000000000e+00 0.000000000000000000e+00 0.000000000000000000e+00 2.438830000000000453e+01 2.457480000000000331e+00 -1.304190000000000396e+02 3.696000000000000796e+01 -3.551139999999999475e+01 3.137920000000000442e+01 -6.943310000000000315e+00 1.474269999999999925e+01 1.265030000000001209e+00 5.944319999999999382e+00 9.189750000000001862e+00 5.193909999999999627e+01 3.616069999999999141e+01 -1.590959999999999752e+01 1.888800000000000168e+01 -2.507059999999999178e+01 4.165350000000000108e+01 2.978400000000000247e+01 -4.714089999999999669e+00 -3.061019999999999897e+01 4.509979999999998768e+00 -7.065600000000000769e+00 -3.908289999999999154e+00 -1.501500000000000057e+01 -1.675519999999999676e+00 -1.341129999999999933e+00 -3.645399999999999974e+00 -2.793229999999999880e+00 -2.312960000000000349e+00 -5.872860000000001079e+00 -5.014899999999999913e-01 -2.456639999999999935e-01 2.700040000000000440e+00 -4.431930000000000591e-01 -4.457010000000000360e+00 3.709789999999999566e+01 -8.316480000000000317e+00 6.907130000000000436e+00 2.789059999999999917e+01 3.152789999999999537e+00 1.541679999999999495e+00 3.697540000000000937e+00 1.794080000000000297e+01 -6.318259999999999366e+01 -1.426449999999999818e+01 1.946330000000000382e+01 -1.097760000000000069e+01 1.238970000000000198e+02 1.670120000000000271e+00 -2.550660000000000593e+01 7.265650000000000830e+00 2.818400000000000105e+01 1.072940000000000005e+01 1.915919999999999845e+01 1.565489999999999648e-14 6.361109999999999741e-15 -1.000000000000000000e+01 1.727190000000001152e-15 6.361109999999998952e-15 -1.000000000000000000e+01 -3.578119999999999853e-15 -4.770830000000000256e-15 6.361109999999998952e-15 1.998179999999999978e+01 8.718970000000000331e-01 2.396399999999999864e+00 2.400000000000000000e+01 -3.180549999999999193e-15 4.373260000000000385e-15 2.000000000000000000e+01 0.000000000000000000e+00 1.113189999999999773e-14 -3.578119999999999853e-15 -4.770830000000000256e-15 6.361109999999998952e-15 2.000000000000000000e+01 0.000000000000000000e+00 -4.770829999999999467e-15 2.400000000000000000e+01 9.541660000000002090e-15 3.379339999999999412e-15 2.000000000000000000e+01 6.361110000000000530e-15 4.770829999999998678e-15 -3.578119999999999853e-15 -4.770830000000000256e-15 6.361109999999998952e-15 1.997479999999999833e+01 -1.025649999999999951e+00 -2.819380000000000219e+00 2.400000000000000000e+01 -3.180549999999999982e-15 -7.156249999999999484e-15 2.000000000000000000e+01 0.000000000000000000e+00 1.272220000000000308e-14 -3.578119999999999853e-15 -4.770830000000000256e-15 6.361109999999998952e-15 1.978150000000000119e+01 -3.009479999999999933e+00 -8.305149999999999366e+00 2.400000000000000000e+01 6.361109999999999741e-15 9.541659999999998934e-15 2.000000000000000000e+01 1.113189999999999931e-14 -4.770829999999999467e-15 6.008549999999997837e+00 -2.252999999999999758e+01 -5.058059999999999690e+01 -1.414710000000000178e+01 2.393540000000000489e+01 -1.140090000000000003e+02 3.290610000000000923e+01 -1.388100000000000378e+01 -3.733239999999999981e+01 -3.326970000000000738e+01 -8.749670000000001835e+00 -1.825880000000000081e+01 -2.818400000000000105e+01 1.072940000000000005e+01 -1.915919999999999845e+01 1.300580000000001108e-15 6.361109999999999741e-15 1.000000000000000000e+01 5.966070000000000327e-15 -6.361109999999998952e-15 1.000000000000000000e+01 8.945309999999999410e-15 -3.975689999999998936e-15 -1.590280000000000077e-15 -1.998179999999999978e+01 8.718970000000000331e-01 -2.396399999999999864e+00 -2.400000000000000000e+01 0.000000000000000000e+00 -7.951389999999999226e-16 -2.000000000000000000e+01 -3.180549999999999982e-15 3.727210000000000073e-15 8.945309999999999410e-15 -3.975689999999998936e-15 -1.590280000000000077e-15 -2.000000000000000000e+01 3.180549999999999982e-15 7.951389999999997649e-15 -2.400000000000000000e+01 7.951389999999999226e-15 7.951390000000000804e-15 -2.000000000000000000e+01 -3.180549999999999587e-15 3.478729999999999632e-15 8.945309999999999410e-15 -3.975689999999998936e-15 -1.590280000000000077e-15 -1.997479999999999833e+01 -1.025649999999999951e+00 2.819380000000000219e+00 -2.400000000000000000e+01 0.000000000000000000e+00 -1.590279999999999485e-15 -2.000000000000000000e+01 0.000000000000000000e+00 -5.963539999999999081e-15 8.945309999999999410e-15 -3.975689999999998936e-15 -1.590280000000000077e-15 -1.978150000000000119e+01 -3.009479999999999933e+00 8.305149999999999366e+00 -2.400000000000000000e+01 0.000000000000000000e+00 9.144089999999999852e-15 -2.000000000000000000e+01 0.000000000000000000e+00 -6.361109999999998952e-15
3.150000000000000000e+03 0.000000000000000000e+00 0.000000000000000000e+00 0.000000000000000000e+00 0.000000000000000000e+00 0.000000000000000000e+00 2.452060000000000173e+01 2.623720000000000496e+00 -1.302099999999999795e+02 3.703610000000000468e+01 -3.566420000000000812e+01 3.136149999999999949e+01 -6.911039999999999850e+00 1.475660000000000238e+01 1.312409999999999854e+00 6.538010000000000765e+00 9.078519999999999257e+00 5.145589999999999264e+01 3.639620000000000744e+01 -1.637500000000000000e+01 1.908849999999999625e+01 -2.497129999999999583e+01 4.207970000000000255e+01 2.959680000000000177e+01 -4.568590000000000373e+00 -3.052570000000000050e+01 4.580799999999999983e+00 -6.976069999999999993e+00 -3.898310000000000386e+00 -1.498419999999999952e+01 -1.653479999999999839e+00 -1.332060000000000022e+00 -3.639540000000000219e+00 -2.757019999999999804e+00 -2.295970000000000510e+00 -5.865879999999998873e+00 -5.003969999999999807e-01 -2.426989999999999981e-01 2.700229999999999908e+00 -4.622709999999999875e-01 -4.399399999999998201e+00 3.694729999999999848e+01 -8.303940000000000765e+00 6.880799999999998917e+00 2.796759999999999735e+01 3.245389999999999997e+00 1.588199999999998724e+00 3.610910000000000508e+00 1.837639999999998963e+01 -6.316060000000000230e+01 -1.406530000000000058e+01 1.968920000000000314e+01 -1.086120000000000019e+01 1.239119999999999919e+02 1.373250000000000082e+00 -2.651680000000000348e+01 7.151260000000000616e+00 2.818400000000000105e+01 1.072940000000000005e+01 1.915919999999999845e+01 1.123600000000000035e-14 -9.541660000000000512e-15 -1.000000000000000000e+01 7.759820000000000730e-15 -6.361109999999999741e-15 -1.000000000000000000e+01 -2.385420000000000017e-15 0.000000000000000000e+00 4.770830000000000256e-15 1.998179999999999978e+01 8.718970000000000331e-01 2.396399999999999864e+00 2.400000000000000000e+01 -3.180550000000000771e-15 1.789059999999999927e-15 2.000000000000000000e+01 3.180549999999999982e-15 8.746530000000000547e-15 -2.385420000000000017e-15 0.000000000000000000e+00 4.770830000000000256e-15 2.000000000000000000e+01 3.180549999999999193e-15 -7.951389999999999226e-15 2.400000000000000000e+01 6.361110000000000530e-15 1.639970000000000496e-15 2.000000000000000000e+01 6.361109999999998952e-15 6.361109999999998952e-15 -2.385420000000000017e-15 0.000000000000000000e+00 4.770830000000000256e-15 1.997479999999999833e+01 -1.025649999999999951e+00 -2.819380000000000219e+00 2.400000000000000000e+01 0.000000000000000000e+00 -8.746530000000002124e-15 2.000000000000000000e+01 -4.770830000000001045e-15 1.272219999999999835e-14 -2.385420000000000017e-15 0.000000000000000000e+00 4.770830000000000256e-15 1.978150000000000119e+01 -3.009479999999999933e+00 -8.305149999999999366e+00 2.400000000000000000e+01 1.590280000000000274e-15 8.746530000000000547e-15 2.000000000000000000e+01 7.951389999999996071e-15 -6.361109999999999741e-15 6.011499999999998067e+00 -2.241779999999999617e+01 -5.065049999999999386e+01 -1.406149999999999878e+01 2.400900000000000389e+01 -1.139920000000000044e+02 3.291979999999999507e+01 -1.373530000000000229e+01 -3.712519999999999953e+01 -3.330129999999999768e+01 -8.825139999999997542e+00 -1.801270000000000238e+01 -2.818400000000000105e+01 1.072940000000000005e+01 -1.915919999999999845e+01 -8.949100000000000208e-15 9.541660000000000512e-15 1.000000000000000000e+01 4.440730000000000670e-15 0.000000000000000000e+00 1.000000000000000000e+01 3.776910000000001650e-15 -3.975689999999999725e-15 -3.180549999999999587e-15 -1.998179999999999978e+01 8.718970000000000331e-01 -2.396399999999999864e+00 -2.400000000000000000e+01 0.000000000000000000e+00 0.000000000000000000e+00 -2.000000000000000000e+01 -9.541659999999998934e-15 3.180549999999999982e-15 3.776910000000001650e-15 -3.975689999999999725e-15 -3.180549999999999587e-15 -2.000000000000000000e+01 3.180549999999999193e-15 7.951389999999996071e-15 -2.400000000000000000e+01 4.770830000000001045e-15 8.746530000000000547e-15 -2.000000000000000000e+01 -1.590279999999999880e-15 1.689669999999998917e-15 3.776910000000001650e-15 -3.975689999999999725e-15 -3.180549999999999587e-15 -1.997479999999999833e+01 -1.025649999999999951e+00 2.819380000000000219e+00 -2.400000000000000000e+01 0.000000000000000000e+00 -2.584200000000000064e-15 -2.000000000000000000e+01 1.590280000000000077e-15 -5.565969999999999999e-15 3.776910000000001650e-15 -3.975689999999999725e-15 -3.180549999999999587e-15 -1.978150000000000119e+01 -3.009479999999999933e+00 8.305149999999999366e+00 -2.400000000000000000e+01 1.590280000000000077e-15 9.541659999999998934e-15 -2.000000000000000000e+01 0.000000000000000000e+00 -6.361109999999999741e-15
